{"title":"Sevdah u Lisinskom 2008","uid":4924442,"size":1794504714,"categoryP":"video","categoryS":"music_videos","magnet":"?xt=urn:btih:76c44e6c773c6fe784ef07673897f0ad8a1c6402&amp;dn=Sevdah+u+Lisinskom+2008&amp;tr=udp%3A%2F%2Ftracker.openbittorrent.com%3A80&amp;tr=udp%3A%2F%2Fopen.demonii.com%3A1337&amp;tr=udp%3A%2F%2Ftracker.coppersurfer.tk%3A6969&amp;tr=udp%3A%2F%2Fexodus.desync.com%3A6969","seeders":0,"leechers":0,"uploader":"tremolos","files":-1,"time":1243792720,"description":"Nastupaju: Zehra DEOVIC, Nedzad SALKOVIC, Halid BESLIC, Hari VARESANOVIC, Nedzad IMAMOVIC, Reuf FEKOVIC, Alma SUBASIC i Aldijana TUZLAK.\n\nPosebni gosti - Bozidar Boki MILOSEVIC, Tijana MILOSEVIC, Zoran Kiki CAUSEVIC\n\nUz pratnju:\nEzher Helja, klarinet\nBranko Pavlovic, bas prim\nDjuka Savic, bas gitara\nDinko Mujanovic, harmonika\nSlobodan Stancic, violina\nMujo Behmen, gitara\nSejo Avdic, bubnjevi\nLeila Piljevic, violina\nMiso Kurtovic, harmonika\n\nPopis pjesama:\n- Reuf Fekovic - Ah, meraka u veceri rane\n- Aldijana Tuzlak - Kraj tanana sadrvana\n- Aldijana Tuzlak - Karanfil se na put sprema\n- Aldijana Tuzlak - Ah, moj Aljo\n- Nedjad Imamovic - Evo ovu rumen ruzu\n- Nedjad Imamovic - Ja zagrizoh sareniku jabuku\n- Nedjad Imamovic - Da zna zora\n- Reuf Fekovic - Kad sretnes Hanku\n- Reuf Fekovic - Emina\n- Hari Varesanovic - Mujo kuje konja po mjesecu\n- Hari Varesanovic - Kao sto je Bosna moja\n- Bozidar Boki Milosevic, Tijana Milosevic, Zoran Kiki Causevic - Splet sevdalinki\n- Alma Subasic - Moj dilbere\n- Alma Subasic - Tebi majko misli lete\n- Alma Subasic - Mene moja zaklinjala majka\n- Halid Beslic - Oj, jeseni\n- Halid Beslic - Karanfile\n- Zehra Deovic - Aksam mrace\n- Zehra Deovic - Snijeg pade na behar, na voce\n- Zehra Deovic - Da sam ptica\n- Nedzad Salkovic - Ah, ljubav, ljubav\n- Nedzad Salkovic - Imam samo pjesmu\n- Nedzad Salkovic - Ne klepeci nanulama\n- Nedzad Salkovic - Srdo moja ne srdi se name\n\nProducent: Tomislav Kasljevic\n\n\nGeneral\nComplete name : Sevdah u Lisinskom.avi\nFormat : DivX\nFormat/Info : Hack of AVI\nFile size : 1.67 GB\nDuration : 2h 17mn\nOveral bit rate : 1734 Kbps\n\nVideo\nFormat : MPEG-4 Visual\nFormat settings, BVOP : Yes\nFormat settings, QPel : No\nFormat settings, GMC : No warppoints\nFormat settings, Matrix : Default\nMuxing mode : Packet Bitstream\nCodec ID : DX50\nCodec ID/Hint : DivX 5\nDuration : 2h 17mn\nBit rate : 1500 Kbps\nWidth : 720 pixels\nHeight : 576 pixels\nDisplay aspect ratio : 4/3\nFrame rate : 25.000 fps\nStandard : PAL\nResolution : 8 bits\nColorimetry : 4:2:0\nScan type : Progressive\nBits/(Pixel*Frame) : 0.145\nStream size : 1.45 GiB\nTitle : Video\nWriting library : DivX 6.2.5 (UTC 2006-06-16)\n\nAudio\nFormat : MPEG Audio\nFormat version : Version 1\nFormat profile : Layer 3\nCodec ID : 55\nCodec ID/Hint : MP3\nDuration : 2h 17mn\nBit rate mode : Constant\nBit rate : 224 Kbps\nChannel(s) : 2 channels\nSampling rate : 48.0 KHz\nResolution : 16 bits\nStream size : 221 MiB\nTitle : Audio","torrent":{"xt":"urn:btih:76c44e6c773c6fe784ef07673897f0ad8a1c6402","amp;dn":"Sevdah+u+Lisinskom+2008","amp;tr":["udp%3A%2F%2Ftracker.openbittorrent.com%3A80","udp%3A%2F%2Fopen.demonii.com%3A1337","udp%3A%2F%2Ftracker.coppersurfer.tk%3A6969","udp%3A%2F%2Fexodus.desync.com%3A6969"],"infoHash":"76c44e6c773c6fe784ef07673897f0ad8a1c6402","infoHashBuffer":{"type":"Buffer","data":[118,196,78,108,119,60,111,231,132,239,7,103,56,151,240,173,138,28,100,2]},"announce":[],"urlList":[]}}